<?xml version="1.0" encoding="utf-8"?><svg version="1.1" id="Layer_1" xmlns="http://www.w3.org/2000/svg" x="0" y="0" viewBox="0 0 386 126" xml:space="preserve"><style>.st1{fill:#77d8d8}</style><path d="M153.5 45.5c10-17 17-30.2 37.3-30.2 31.7 0 16.7 72.2 1.7 110.2 0 0 27-36 27-80 0-27-9-45.1-24.6-45.1-20.4 0-35.4 15.1-41.4 45.1z" fill="#0c7b93"/><path class="st1" d="M63.2 90l-5.1-12h-25l-5.2 12h-9.4l23.2-51.3h7.6L72.5 90h-9.3zm-27-19.2H55l-9.4-22-9.4 22zM100.6 53.3l-.1 8.2c-1.5-.6-3.1-.9-4.8-.9-3.1 0-5.4.9-7 2.7-1.6 1.8-2.4 4.1-2.4 7.1V90h-8.9V63.9c0-3.8-.2-7.3-.6-10.3h8.4L86 60c.9-2.4 2.4-4.2 4.3-5.4 2-1.2 4.2-1.9 6.7-1.9 1.4.1 2.6.3 3.6.6zM139.7 37v53h-8.9v-5.8c-1.1 2-2.7 3.6-4.8 4.7-2.1 1.1-4.4 1.7-7.1 1.7-3.1 0-5.9-.8-8.4-2.4-2.4-1.6-4.4-3.8-5.7-6.7-1.4-2.9-2.1-6.2-2.1-10s.7-7 2-9.9c1.3-2.8 3.2-5 5.7-6.6 2.4-1.6 5.3-2.3 8.4-2.3 2.6 0 4.9.5 6.9 1.6s3.6 2.6 4.7 4.6V37h9.3zm-11.3 43.4c1.7-2.1 2.5-5 2.5-8.8 0-3.8-.8-6.7-2.4-8.8-1.6-2.1-3.9-3.1-6.9-3.1-3 0-5.4 1-7 3.1-1.7 2-2.5 4.9-2.5 8.7 0 3.8.8 6.7 2.5 8.9 1.7 2.1 4 3.2 6.9 3.2 2.9-.1 5.2-1.1 6.9-3.2zM149.5 90V53.6h8.9V90h-8.9zM165.9 86l2.5-6.3c3.9 2.9 8.3 4.3 13.3 4.3 2.2 0 3.8-.4 5-1.1 1.2-.7 1.8-1.7 1.8-3 0-1.1-.4-2-1.2-2.6-.8-.6-2.2-1.2-4.2-1.7l-6-1.4c-6.6-1.4-9.9-4.8-9.9-10.2 0-2.2.6-4.2 1.9-5.9 1.2-1.7 3-3 5.3-4s4.9-1.4 7.8-1.4c2.6 0 5.1.4 7.5 1.2 2.4.8 4.5 1.9 6.3 3.4l-2.7 6.1c-3.6-2.7-7.4-4-11.2-4-2.1 0-3.7.4-4.8 1.2-1.2.8-1.7 1.8-1.7 3.2 0 1.1.3 1.9 1 2.5.7.6 1.9 1.2 3.6 1.6l6.2 1.4c3.6.8 6.2 2.1 7.9 3.8 1.7 1.7 2.5 3.9 2.5 6.7 0 3.4-1.3 6-4 8s-6.4 3-11 3c-6.8-.2-12-1.8-15.9-4.8zM256.7 37v53h-5.8v-6.6c-1.1 2.3-2.7 4-4.8 5.2-2.1 1.2-4.6 1.8-7.5 1.8-3.2 0-6-.8-8.4-2.4-2.4-1.6-4.3-3.8-5.7-6.7-1.3-2.9-2-6.2-2-9.9s.7-7 2-9.8c1.3-2.8 3.2-5 5.7-6.5 2.4-1.5 5.3-2.3 8.4-2.3 2.8 0 5.3.6 7.4 1.8 2.1 1.2 3.7 2.9 4.8 5.1V37h5.9zm-8.6 45c1.9-2.4 2.9-5.9 2.9-10.3s-1-7.8-2.9-10.3c-1.9-2.4-4.7-3.6-8.2-3.6-3.6 0-6.3 1.2-8.3 3.6-2 2.4-3 5.8-3 10.2 0 4.5 1 7.9 3 10.4s4.8 3.7 8.3 3.7c3.5 0 6.2-1.2 8.2-3.7zM299.9 53.8V90h-5.8v-6.6c-1.1 2.3-2.7 4-4.8 5.2s-4.6 1.8-7.5 1.8c-3.2 0-6-.8-8.5-2.3-2.4-1.5-4.3-3.7-5.6-6.5-1.3-2.8-2-6.1-2-9.8s.7-7 2-9.9c1.3-2.9 3.2-5.1 5.7-6.7 2.4-1.6 5.2-2.4 8.4-2.4 2.8 0 5.3.6 7.4 1.9 2.1 1.2 3.7 3 4.8 5.3v-6.3h5.9zM291.3 82c1.9-2.4 2.9-5.9 2.9-10.3s-1-7.9-2.9-10.3c-1.9-2.4-4.7-3.6-8.2-3.6-3.6 0-6.3 1.2-8.3 3.7-2 2.5-3 5.9-3 10.3s1 7.8 3 10.2c2 2.4 4.8 3.6 8.4 3.6 3.4.1 6.1-1.1 8.1-3.6zM319 58.4v19.8c0 2.7.6 4.6 1.7 5.7 1.1 1.1 2.7 1.6 4.7 1.6 1.3 0 2.6-.2 3.9-.6v5c-1.5.5-3.2.7-5 .7-3.5 0-6.2-1-8.1-2.9-1.9-1.9-2.9-4.8-2.9-8.6V58.4h-7.1v-4.6h7.1v-9.3l5.8-2.1v11.4h10.4v4.6H319zM368.3 53.8V90h-5.8v-6.6c-1.1 2.3-2.7 4-4.8 5.2-2.1 1.2-4.6 1.8-7.5 1.8-3.2 0-6-.8-8.5-2.3-2.4-1.5-4.3-3.7-5.6-6.5s-2-6.1-2-9.8.7-7 2-9.9c1.3-2.9 3.2-5.1 5.7-6.7 2.4-1.6 5.2-2.4 8.4-2.4 2.8 0 5.3.6 7.4 1.9 2.1 1.2 3.7 3 4.8 5.3v-6.3h5.9zM359.7 82c1.9-2.4 2.9-5.9 2.9-10.3s-1-7.9-2.9-10.3c-1.9-2.4-4.7-3.6-8.2-3.6-3.6 0-6.3 1.2-8.3 3.7-2 2.5-3 5.9-3 10.3s1 7.8 3 10.2c2 2.4 4.8 3.6 8.4 3.6 3.4.1 6.1-1.1 8.1-3.6z"/></svg>